{"title":"Moonrunners - RARE (1975)","uid":10331241,"size":1268954762,"categoryP":"video","categoryS":"movies","magnet":"?xt=urn:btih:c76386285b046a58f54d52e4b315c307d4147f68&amp;dn=Moonrunners+-+RARE+%281975%29&amp;tr=udp%3A%2F%2Ftracker.openbittorrent.com%3A80&amp;tr=udp%3A%2F%2Fopen.demonii.com%3A1337&amp;tr=udp%3A%2F%2Ftracker.coppersurfer.tk%3A6969&amp;tr=udp%3A%2F%2Fexodus.desync.com%3A6969","seeders":3,"leechers":2,"uploader":"cowabungaFC","files":-1,"time":1402414418,"description":"The movie that inspired the TV show 'The Dukes of Hazzard'.\n\n\n-----------------------------------------------------------\nMEDIAINFO\n-----------------------------------------------------------\nFormat                                   : AVI\nFormat/Info                              : Audio Video Interleave\nFormat profile                           : OpenDML\nFile size                                : 1.18 GiB\nDuration                                 : 1h 42mn\nOverall bit rate                         : 1 646 Kbps\nWriting application                      : DigiArty AV Encoder Core\n\nVideo\nID                                       : 0\nFormat                                   : MPEG-4 Visual\nFormat profile                           : Simple@L1\nFormat settings, BVOP                    : No\nFormat settings, QPel                    : No\nFormat settings, GMC                     : No warppoints\nFormat settings, Matrix                  : Default (H.263)\nCodec ID                                 : DX50\nCodec ID/Hint                            : DivX 5\nDuration                                 : 1h 42mn\nBit rate                                 : 1 501 Kbps\nWidth                                    : 720 pixels\nHeight                                   : 540 pixels\nDisplay aspect ratio                     : 4:3\nFrame rate                               : 29.970 fps\nColor space                              : YUV\nChroma subsampling                       : 4:2:0\nBit depth                                : 8 bits\nScan type                                : Progressive\nCompression mode                         : Lossy\nBits/(Pixel*Frame)                       : 0.129\nStream size                              : 1.08 GiB (91%)\nWriting library                          : DigiArty AV Encoder Core\n\nAudio\nID                                       : 1\nFormat                                   : MPEG Audio\nFormat version                           : Version 1\nFormat profile                           : Layer 3\nCodec ID                                 : 55\nCodec ID/Hint                            : MP3\nDuration                                 : 1h 42mn\nBit rate mode                            : Constant\nBit rate                                 : 128 Kbps\nChannel(s)                               : 2 channels\nSampling rate                            : 48.0 KHz\nCompression mode                         : Lossy\nStream size                              : 94.1 MiB (8%)\nAlignment                                : Aligned on interleaves\nInterleave, duration                     : 24 ms (0.72 video frame)\nInterleave, preload duration             : 24 ms","torrent":{"xt":"urn:btih:c76386285b046a58f54d52e4b315c307d4147f68","amp;dn":"Moonrunners+-+RARE+%281975%29","amp;tr":["udp%3A%2F%2Ftracker.openbittorrent.com%3A80","udp%3A%2F%2Fopen.demonii.com%3A1337","udp%3A%2F%2Ftracker.coppersurfer.tk%3A6969","udp%3A%2F%2Fexodus.desync.com%3A6969"],"infoHash":"c76386285b046a58f54d52e4b315c307d4147f68","infoHashBuffer":{"type":"Buffer","data":[199,99,134,40,91,4,106,88,245,77,82,228,179,21,195,7,212,20,127,104]},"announce":[],"urlList":[]}}